# xmcd CD database file
# Copyright (C) 1993-1998 Ti Kan
#
# Track frame offsets:
#	182
#	21862
#	39000
#	55887
#	79527
#	98337
#	121185
#	140027
#	158537
#	178325
#
# Disc length: 2614 seconds
#
# Revision: 1
# Processed by: cddbd v1.4b41PL1 Copyright (c) Steve Scherf et al.
# Submitted via: CDValet v3.31 - Copyright (c) 1997 Greg Leichner
#
DISCID=6f0a340a
DTITLE=Various Artist - huH CD 7
DYEAR=1900
DGENRE=
TTITLE0=Freedom (Theme from Panther) (Various Artists)
TTITLE1=Resurrection (Common Sense)
TTITLE2=Hole In The Bucket (Slaveship Remix) (Spearhead)
TTITLE3=I'll Be Around (Rappin' 4-Tay)
TTITLE4=Keep My Soul (Heavenly Horn Remix) (Coz)
TTITLE5=I Wanna Love Like That (Tony Thompson)
TTITLE6=Masta I.C. (Mic Geronimo)
TTITLE7=Sleepin' Wit My Fonk (Sir Mix-A-Lot)
TTITLE8=Mic Check (Aceyalone)
TTITLE9=Elevation (Free My Mind) (The B.U.M.S.)
EXTD=
EXTT0=
EXTT1=
EXTT2=
EXTT3=
EXTT4=
EXTT5=
EXTT6=
EXTT7=
EXTT8=
EXTT9=
PLAYORDER=
